# xmcd
#
# Track frame offsets:
#	150
#	14837
#	29862
#	43110
#	56540
#	69740
#	83615
#	96850
#	108925
#	123555
#	136255
#	147837
#	160532
#	173172
#	185890
#	196985
#	210672
#	222462
#	233880
#	243705
#	259260
#
# Disc length: 3638 seconds
#
# Revision: 5
# Processed by: cddbd v1.5.2PL0 Copyright (c) Steve Scherf et al.
# Submitted via: AudioConverter v8.05 Copyright (c) D.R. Software
#
DISCID=420e3415
DTITLE=Various Artist - Texas Blues {Blues Collection Vol 78}
DYEAR=1996
DGENRE=Blues
TTITLE0=I Used To Call Her Baby - Dallas String Band
TTITLE1=Work On Blues - Texas Alexander
TTITLE2=Black Snake Moan - Blind Lemmon Jefferson
TTITLE3=Match Box Blues - Blind Lemmon Jefferson
TTITLE4=Cryin' For You Blues - Sammy Hill
TTITLE5=West Texas Woman - Whistlin´ Alex Moore
TTITLE6=Key To The Bushes Blues - Bessie Tucker
TTITLE7=Blue Goose Blues - Jesse "Babyface" Thomas
TTITLE8=Fence Breakin' Blues - Shreveport Home Wreckers
TTITLE9=Sadie's Servant Room Blues - Hattie Burleson
TTITLE10=Jail Break Blues - Texas Tommy
TTITLE11=The Flying Crow - Black Ivory King
TTITLE12=Jack Of All Trade Blues - Pinetop Burks
TTITLE13=Cows, See That Train Comin' - Joe Pullum
TTITLE14=Gamblin' Jinx Blues - Black Boy Shine
TTITLE15=West Dallas Drag - Rob Cooper
TTITLE16=Midnight Trouble Blues - Son Becky
TTITLE17=Penitentiary Blues  Part 1 - Smokey Hogg
TTITLE18=Penitentiary Blues  Part 2 - Smokey Hogg
TTITLE19=I Got A Break, Baby - T-Bone Walker
TTITLE20=Mean Old World - T-Bone Walker
EXTD=BLU NC 078 YEAR: 1996
EXTT0=
EXTT1=
EXTT2=
EXTT3=
EXTT4=
EXTT5=
EXTT6=
EXTT7=
EXTT8=
EXTT9=
EXTT10=
EXTT11=
EXTT12=
EXTT13=
EXTT14=
EXTT15=
EXTT16=
EXTT17=
EXTT18=
EXTT19=
EXTT20=
PLAYORDER=
